<svg width="26" height="26" viewBox="0 0 26 26" fill="none" xmlns="http://www.w3.org/2000/svg">
<g clip-path="url(#clip0_147_541)">
<path fill-rule="evenodd" clip-rule="evenodd" d="M12.9052 0C5.9145 0 0.263184 5.69298 0.263184 12.736C0.263184 18.3658 3.88417 23.1313 8.90745 24.818C9.53549 24.9448 9.76554 24.544 9.76554 24.2068C9.76554 23.9115 9.74484 22.8995 9.74484 21.845C6.22813 22.6042 5.49581 20.3268 5.49581 20.3268C4.93065 18.8507 4.09326 18.4714 4.09326 18.4714C2.94225 17.6912 4.1771 17.6912 4.1771 17.6912C5.45388 17.7755 6.12384 18.9985 6.12384 18.9985C7.2539 20.9382 9.07488 20.3902 9.80746 20.0527C9.912 19.2304 10.2471 18.6611 10.6029 18.3448C7.7981 18.0496 4.84706 16.9532 4.84706 12.0611C4.84706 10.6694 5.34908 9.53082 6.14455 8.6453C6.01904 8.32908 5.57939 7.02151 6.27031 5.27144C6.27031 5.27144 7.33774 4.934 9.74458 6.57875C10.775 6.29997 11.8377 6.15815 12.9052 6.15695C13.9726 6.15695 15.0608 6.30471 16.0656 6.57875C18.4727 4.934 19.5401 5.27144 19.5401 5.27144C20.231 7.02151 19.7911 8.32908 19.6656 8.6453C20.482 9.53082 20.9634 10.6694 20.9634 12.0611C20.9634 16.9532 18.0123 18.0284 15.1865 18.3448C15.6472 18.7454 16.0446 19.5044 16.0446 20.7064C16.0446 22.4143 16.0239 23.785 16.0239 24.2065C16.0239 24.544 16.2542 24.9448 16.882 24.8183C21.9053 23.1311 25.5263 18.3658 25.5263 12.736C25.547 5.69298 19.875 0 12.9052 0Z" fill="white"/>
</g>
<defs>
<clipPath id="clip0_147_541">
<rect width="25.2632" height="25.2632" fill="white" transform="translate(0.263184)"/>
</clipPath>
</defs>
</svg>
