<svg width="26" height="26" viewBox="0 0 26 26" fill="none" xmlns="http://www.w3.org/2000/svg">
<g clip-path="url(#clip0_147_542)">
<path d="M23.3931 0H1.86513C0.833882 0 0 0.814145 0 1.82072V23.4375C0 24.4441 0.833882 25.2632 1.86513 25.2632H23.3931C24.4243 25.2632 25.2632 24.4441 25.2632 23.4424V1.82072C25.2632 0.814145 24.4243 0 23.3931 0ZM7.49507 21.528H3.74507V9.46875H7.49507V21.528ZM5.62007 7.82566C4.41612 7.82566 3.44408 6.85362 3.44408 5.65461C3.44408 4.45559 4.41612 3.48355 5.62007 3.48355C6.81908 3.48355 7.79112 4.45559 7.79112 5.65461C7.79112 6.84868 6.81908 7.82566 5.62007 7.82566ZM21.528 21.528H17.7829V15.6661C17.7829 14.2697 17.7582 12.4688 15.8339 12.4688C13.8849 12.4688 13.5888 13.9934 13.5888 15.5674V21.528H9.84869V9.46875H13.4408V11.1168H13.4901C13.9885 10.1694 15.2122 9.16776 17.0329 9.16776C20.8273 9.16776 21.528 11.6645 21.528 14.9112V21.528Z" fill="white"/>
</g>
<defs>
<clipPath id="clip0_147_542">
<rect width="25.2632" height="25.2632" fill="white"/>
</clipPath>
</defs>
</svg>
