<svg width="26" height="26" viewBox="0 0 26 26" fill="none" xmlns="http://www.w3.org/2000/svg">
<g clip-path="url(#clip0_147_539)">
<path fill-rule="evenodd" clip-rule="evenodd" d="M25.7895 12.6316C25.7895 19.6078 20.1342 25.2632 13.1579 25.2632C6.18172 25.2632 0.526367 19.6078 0.526367 12.6316C0.526367 5.65535 6.18172 0 13.1579 0C20.1342 0 25.7895 5.65535 25.7895 12.6316ZM13.6106 9.32519C12.382 9.83621 9.92651 10.8939 6.24415 12.4982C5.64619 12.736 5.33295 12.9686 5.30444 13.1961C5.25625 13.5805 5.73764 13.7319 6.39318 13.938C6.48235 13.9661 6.57474 13.9951 6.66946 14.0259C7.31441 14.2355 8.18197 14.4808 8.63299 14.4906C9.0421 14.4994 9.49871 14.3307 10.0028 13.9846C13.4434 11.6621 15.2194 10.4882 15.3309 10.4629C15.4096 10.4451 15.5186 10.4226 15.5924 10.4883C15.6663 10.5539 15.659 10.6782 15.6512 10.7116C15.6035 10.9149 13.7139 12.6717 12.736 13.5808C12.4311 13.8642 12.2149 14.0653 12.1707 14.1112C12.0716 14.214 11.9707 14.3113 11.8737 14.4048C11.2745 14.9825 10.8252 15.4156 11.8986 16.1229C12.4144 16.4629 12.8272 16.7439 13.239 17.0244C13.6887 17.3306 14.1372 17.6361 14.7175 18.0165C14.8654 18.1134 15.0066 18.2141 15.1441 18.3121C15.6675 18.6852 16.1377 19.0204 16.7186 18.967C17.0561 18.9359 17.4047 18.6185 17.5818 17.672C18.0003 15.4349 18.8228 10.5878 19.0129 8.5905C19.0296 8.41551 19.0086 8.19155 18.9918 8.09324C18.975 7.99492 18.9398 7.85485 18.812 7.75116C18.6607 7.62836 18.427 7.60246 18.3225 7.6043C17.8474 7.61267 17.1185 7.86612 13.6106 9.32519Z" fill="white"/>
</g>
<defs>
<clipPath id="clip0_147_539">
<rect width="25.2632" height="25.2632" fill="white" transform="translate(0.526367)"/>
</clipPath>
</defs>
</svg>
